# 3ds Max Wavefront OBJ Exporter v0.97b - (c)2007 guruware
# 创建的文件:30.08.2021 16:41:03

mtllib data15.mtl

#
# object data15
#

v  133.3680 141.9966 98.5000
v  130.9967 142.2252 98.5000
v  130.9967 141.9599 98.5000
v  133.3347 141.6985 98.5000
v  136.0612 141.6955 98.5000
v  136.0279 141.3974 98.5000
v  140.7957 141.1662 98.5000
v  141.0592 140.8349 98.5000
v  141.5424 147.5727 98.5000
v  141.8404 147.5380 98.5000
v  142.2890 153.9780 98.5000
v  142.6217 154.2411 98.5000
v  139.6806 154.2830 98.5000
v  139.7154 154.5810 98.5000
v  134.7234 154.8145 98.5000
v  134.8717 155.1474 98.5000
v  118.3741 144.3205 98.5000
v  113.3897 144.8830 98.5000
v  113.3560 144.5849 98.5000
v  118.3404 144.0224 98.5000
v  123.3584 143.7580 98.5000
v  123.3248 143.4599 98.5000
v  125.9200 143.4689 98.5000
v  125.8863 143.1708 98.5000
v  128.4028 143.2297 98.5000
v  128.3092 142.8974 98.5000
v  122.5098 155.3024 98.5000
v  127.4136 154.7897 98.5000
v  127.3717 155.0536 98.5000
v  122.5435 155.6005 98.5000
v  117.6816 155.8493 98.5000
v  117.7154 156.1474 98.5000
v  112.8535 156.3961 98.5000
v  112.8873 156.6942 98.5000
v  109.5815 156.7668 98.5000
v  109.6152 157.0649 98.5000
v  107.9968 156.9097 98.5000
v  108.0592 157.2411 98.5000
v  90.8865 156.4404 98.5000
v  95.2754 155.9430 98.5000
v  95.3092 156.2411 98.5000
v  90.6217 156.7724 98.5000
v  90.3886 151.9735 98.5000
v  90.0904 152.0067 98.5000
v  89.8905 147.5056 98.5000
v  89.5592 147.2411 98.5000
v  95.4053 146.8830 98.5000
v  95.3717 146.5849 98.5000
v  98.9490 146.4829 98.5000
v  98.9153 146.1848 98.5000
v  101.1842 145.9286 98.5000
v  101.2197 146.2697 98.5000
v  108.3990 145.4092 98.5001
v  108.3717 145.1474 98.5000
v  99.9675 155.4530 98.5000
v  99.9967 155.7099 98.5000
# 56 vertices

vn 0.0000 0.0000 1.0000
vn -0.0000 0.0000 1.0000
vn -0.0000 -0.0005 1.0000
vn 0.0000 0.0001 1.0000
vn 0.0000 -0.0000 1.0000
# 5 vertex normals

vt 6.5659 -1.6542 0.0000
vt 5.7720 -1.6700 0.0000
vt 5.7822 -1.7579 0.0000
vt 6.5664 -1.7542 0.0000
vt 7.4693 -1.6500 0.0000
vt 7.4697 -1.7500 0.0000
vt 9.0572 -1.6426 0.0000
vt 9.1572 -1.7421 0.0000
vt 9.0572 0.5074 0.0000
vt 9.1572 0.5074 0.0000
vt 9.0572 2.6570 0.0000
vt 9.1572 2.7569 0.0000
vt 8.1818 2.6573 0.0000
vt 8.1819 2.7573 0.0000
vt 6.5201 2.6420 0.0000
vt 6.5563 2.7579 0.0000
vt 1.5119 -1.4634 0.0000
vt -0.1601 -1.4695 0.0000
vt -0.1598 -1.5695 0.0000
vt 1.5122 -1.5634 0.0000
vt 3.1839 -1.4573 0.0000
vt 3.1842 -1.5573 0.0000
vt 4.0431 -1.4542 0.0000
vt 4.0435 -1.5542 0.0000
vt 4.8744 -1.4376 0.0000
vt 4.8562 -1.5512 0.0000
vt 2.4574 2.3322 0.0000
vt 4.1008 2.3517 0.0000
vt 4.0767 2.4374 0.0000
vt 2.4571 2.4322 0.0000
vt 0.8377 2.3270 0.0000
vt 0.8374 2.4270 0.0000
vt -0.7819 2.3217 0.0000
vt -0.7822 2.4217 0.0000
vt -1.8796 2.3182 0.0000
vt -1.8799 2.4182 0.0000
vt -2.4098 2.3043 0.0000
vt -2.4019 2.4165 -0.0625
vt -8.0567 1.4887 0.0000
vt -6.5844 1.4934 0.0000
vt -6.5847 1.5934 0.0000
vt -8.1572 1.5884 0.0000
vt -8.0492 -0.0095 0.0000
vt -8.1492 -0.0100 0.0000
vt -8.0417 -1.5080 0.0000
vt -8.1412 -1.6083 0.0000
vt -6.1918 -1.5013 0.0000
vt -6.1914 -1.6013 0.0000
vt -5.0031 -1.4971 0.0000
vt -5.0027 -1.5970 0.0000
vt -4.2416 -1.5943 0.0000
vt -4.2430 -1.4800 0.0000
vt -1.8328 -1.4879 0.9375
vt -1.8318 -1.5756 0.0000
vt -5.0120 1.5122 0.0625
vt -5.0122 1.5984 -0.0625
# 56 texture coords

g data15
usemtl sn3
s off
f 1/1/1 2/2/1 3/3/1 
f 3/3/1 4/4/1 1/1/1 
f 5/5/1 1/1/1 4/4/1 
f 4/4/1 6/6/1 5/5/1 
f 7/7/1 5/5/1 6/6/1 
f 6/6/1 8/8/1 7/7/1 
f 9/9/1 7/7/1 8/8/1 
f 8/8/1 10/10/1 9/9/1 
f 11/11/1 9/9/1 10/10/1 
f 10/10/1 12/12/1 11/11/1 
f 13/13/1 11/11/1 12/12/1 
f 12/12/1 14/14/1 13/13/1 
f 15/15/1 13/13/1 14/14/1 
f 14/14/1 16/16/1 15/15/1 
f 17/17/1 18/18/1 19/19/1 
f 19/19/1 20/20/1 17/17/1 
f 21/21/1 17/17/1 20/20/1 
f 20/20/1 22/22/1 21/21/1 
f 23/23/1 21/21/1 22/22/1 
f 22/22/1 24/24/1 23/23/1 
f 25/25/1 23/23/1 24/24/1 
f 24/24/1 26/26/1 25/25/1 
f 27/27/1 28/28/1 29/29/1 
f 29/29/1 30/30/1 27/27/1 
f 31/31/1 27/27/1 30/30/1 
f 30/30/1 32/32/1 31/31/1 
f 33/33/1 31/31/1 32/32/1 
f 32/32/1 34/34/1 33/33/1 
f 35/35/1 33/33/1 34/34/1 
f 34/34/1 36/36/1 35/35/1 
f 37/37/1 35/35/1 36/36/1 
f 36/36/2 38/38/2 37/37/2 
f 39/39/1 40/40/1 41/41/1 
f 41/41/1 42/42/1 39/39/1 
f 43/43/1 39/39/1 42/42/1 
f 42/42/1 44/44/1 43/43/1 
f 45/45/1 43/43/1 44/44/1 
f 44/44/1 46/46/1 45/45/1 
f 47/47/1 45/45/1 46/46/1 
f 46/46/1 48/48/1 47/47/1 
f 49/49/1 47/47/1 48/48/1 
f 48/48/1 50/50/1 49/49/1 
f 49/49/1 50/50/1 51/51/1 
f 51/51/1 52/52/1 49/49/1 
f 18/18/3 53/53/3 54/54/3 
f 54/54/1 19/19/1 18/18/1 
f 40/40/4 55/55/4 56/56/4 
f 56/56/5 41/41/5 40/40/5 
# 48 faces

