# 3ds Max Wavefront OBJ Exporter v0.97b - (c)2007 guruware
# 创建的文件:30.08.2021 16:41:07

mtllib data12.mtl

#
# object data12
#

v  108.7821 163.6852 6.5000
v  101.0202 164.6336 6.5000
v  101.2834 164.3008 6.5000
v  108.4493 163.4221 6.5000
v  100.4967 160.1161 6.5000
v  100.7946 160.0813 6.5000
v  108.2595 159.2157 6.5000
v  107.9615 159.2505 6.5000
v  135.5248 160.7091 6.5000
v  128.1443 161.5231 6.5000
v  128.4074 161.1903 6.5000
v  135.1920 160.4460 6.5000
v  127.6217 157.0536 6.5000
v  127.9196 157.0188 6.5000
v  135.0022 156.2395 6.5000
v  134.7042 156.2744 6.5000
# 16 vertices

vn 0.0000 0.0000 1.0000
vn -0.0000 0.0000 1.0000
# 2 vertex normals

vt 8.6000 7.2000 1.0000
vt -7.6000 7.2000 1.0000
vt -7.0000 6.6000 1.0000
vt 8.0000 6.6000 1.0000
vt -7.6000 -6.2000 1.0000
vt -7.0000 -6.2000 1.0000
vt 8.6000 -1.8000 1.0000
vt 8.0000 -1.8000 1.0000
vt 4.8400 1.0000 0.0000
vt 3.3200 1.0000 0.0000
vt 3.3800 0.9400 0.0000
vt 4.7800 0.9400 0.0000
vt 3.3200 0.1000 0.0000
vt 3.3800 0.1000 0.0000
vt 4.8400 0.1000 0.0000
vt 4.7800 0.1000 0.0000
# 16 texture coords

g data12
usemtl rjl_001
s off
f 1/1/1 2/2/1 3/3/1 
f 3/3/1 4/4/1 1/1/1 
f 2/2/1 5/5/1 6/6/1 
f 6/6/1 3/3/1 2/2/1 
f 7/7/2 1/1/2 4/4/2 
f 4/4/1 8/8/1 7/7/1 
f 9/9/1 10/10/1 11/11/1 
f 11/11/1 12/12/1 9/9/1 
f 10/10/1 13/13/1 14/14/1 
f 14/14/1 11/11/1 10/10/1 
f 15/15/1 9/9/1 12/12/1 
f 12/12/1 16/16/1 15/15/1 
# 12 faces

