# 3ds Max Wavefront OBJ Exporter v0.97b - (c)2007 guruware
# 创建的文件:30.08.2021 16:41:01

mtllib data25.mtl

#
# object data25
#

v  130.6734 141.3341 0.8000
v  130.6734 141.3341 2.2000
v  129.5809 141.4619 2.2000
v  129.5809 141.4619 0.8000
v  107.5873 163.8339 0.8000
v  106.4455 163.9811 0.8000
v  106.4455 163.9811 2.2000
v  107.5873 163.8339 2.2000
v  105.4012 164.1075 0.8000
v  104.2167 164.2555 0.8000
v  104.2167 164.2555 2.2000
v  105.4012 164.1075 2.2000
v  103.1709 164.3855 0.8000
v  102.0650 164.5034 0.8000
v  102.0650 164.5034 2.2000
v  103.1709 164.3855 2.2000
v  107.6135 153.6009 0.8000
v  107.6135 153.6009 2.2000
v  107.7413 154.6934 2.2000
v  107.7413 154.6934 0.8000
# 20 vertices

vn -0.1161 -0.9932 0.0000
vn 0.1278 0.9918 0.0000
vn 0.1240 0.9923 0.0000
vn 0.1060 0.9944 0.0000
vn -0.9932 0.1161 0.0000
# 5 vertex normals

vt 0.0000 0.0000 0.5000
vt 0.0000 1.0000 0.5000
vt 1.0000 1.0000 0.5000
vt 1.0000 0.0000 0.5000
# 4 texture coords

g data25
usemtl fqlm_008
s off
f 1/1/1 2/2/1 3/3/1 
f 3/3/1 4/4/1 1/1/1 
f 5/1/2 6/4/2 7/3/2 
f 7/3/2 8/2/2 5/1/2 
f 9/1/3 10/4/3 11/3/3 
f 11/3/3 12/2/3 9/1/3 
f 13/1/4 14/4/4 15/3/4 
f 15/3/4 16/2/4 13/1/4 
f 17/1/5 18/2/5 19/3/5 
f 19/3/5 20/4/5 17/1/5 
# 10 faces

