# 3ds Max Wavefront OBJ Exporter v0.97b - (c)2007 guruware
# 创建的文件:30.08.2021 16:41:02

mtllib data30.mtl

#
# object data30
#

v  130.9967 142.2252 98.5000
v  131.0217 142.2228 96.5000
v  130.9967 142.2252 96.5000
v  136.0612 141.6955 96.5000
v  133.3680 141.9966 96.5000
v  133.3680 141.9966 98.5000
v  136.0612 141.6955 98.5000
v  140.7957 141.1662 96.5000
v  140.7957 141.1662 98.5000
v  141.5424 147.5727 96.5000
v  141.5424 147.5727 98.5000
v  142.2890 153.9780 96.5000
v  142.2890 153.9780 98.5000
v  139.6806 154.2830 96.5000
v  139.6806 154.2830 98.5000
v  134.7234 154.8145 96.5000
v  134.7234 154.8145 98.5000
v  117.6816 155.8493 96.5000
v  122.5098 155.3024 96.5000
v  122.5098 155.3024 98.5000
v  117.6816 155.8493 98.5000
v  112.8535 156.3961 96.5000
v  112.8535 156.3961 98.5000
v  109.5815 156.7668 96.5000
v  109.5815 156.7668 98.5000
v  108.0168 156.9079 96.5000
v  107.9968 156.9097 98.5000
v  118.3741 144.3205 96.5000
v  113.3897 144.8830 96.5000
v  113.3897 144.8830 98.5000
v  118.3741 144.3205 98.5000
v  123.3584 143.7580 96.5000
v  123.3584 143.7580 98.5000
v  125.9200 143.4689 96.5000
v  125.9200 143.4689 98.5000
v  128.4028 143.2297 98.5000
v  128.3414 143.2356 96.5000
v  90.8865 156.4404 96.5000
v  95.2754 155.9430 96.5000
v  95.2754 155.9430 98.5000
v  90.8865 156.4404 98.5000
v  90.3886 151.9735 96.5000
v  90.3886 151.9735 98.5000
v  89.8905 147.5056 96.5000
v  89.8905 147.5056 98.5000
v  95.4053 146.8830 96.5000
v  95.4053 146.8830 98.5000
v  98.9490 146.4829 96.5000
v  98.9490 146.4829 98.5000
v  101.2197 146.2697 98.5000
v  101.2197 146.2697 96.5000
v  108.3990 145.4091 96.5001
v  108.3990 145.4092 98.5001
v  99.9675 155.4530 96.5000
v  99.9675 155.4530 98.5000
v  127.4136 154.7897 98.5000
v  127.4136 154.7897 96.5000
# 57 vertices

vn 0.0961 0.9954 0.0000
vn 0.1111 0.9938 0.0000
vn -0.9933 0.1158 0.0000
vn -0.1161 -0.9932 0.0000
vn -0.1066 -0.9943 0.0000
vn -0.1125 -0.9936 0.0000
vn -0.0898 -0.9960 0.0000
vn 0.1121 0.9937 0.0000
vn 0.0959 0.9954 0.0000
vn 0.0000 0.9933 -0.1159
vn -0.1126 -0.9936 0.0000
vn 0.9938 -0.1108 0.0000
vn 0.1122 0.9937 0.0000
vn 0.0935 0.9956 0.0000
vn 0.1049 0.9945 -0.0001
vn 0.1048 0.9945 0.0000
vn -0.1039 -0.9946 0.0000
vn -0.1040 -0.9946 0.0000
vn -0.1040 -0.9946 -0.0000
vn 0.0960 0.9954 0.0000
# 20 vertex normals

vt -4.4690 1.0000 -1.7709
vt -4.4773 0.0000 -1.7717
vt -4.4690 0.0000 -1.7709
vt -6.1572 0.0000 -1.9475
vt -5.2594 0.0000 -1.8471
vt -5.2594 1.0000 -1.8471
vt -6.1572 1.0000 -1.9475
vt -7.7353 0.0000 -2.1239
vt -7.7353 1.0000 -2.1239
vt 0.9884 0.0000 8.9842
vt 3.1239 0.0000 8.7353
vt 3.1239 1.0000 8.7353
vt 0.9884 1.0000 8.9842
vt -1.1467 0.0000 9.2331
vt -1.1467 1.0000 9.2331
vt 8.3636 0.0000 2.2483
vt 9.2331 0.0000 2.1467
vt 9.2331 1.0000 2.1467
vt 8.3636 1.0000 2.2483
vt 6.7112 0.0000 2.4255
vt 6.7112 1.0000 2.4255
vt 1.0306 0.0000 2.7704
vt 2.6400 0.0000 2.5882
vt 2.6400 1.0000 2.5882
vt 1.0306 1.0000 2.7704
vt -0.5787 0.0000 2.9527
vt -0.5787 1.0000 2.9527
vt -1.6694 0.0000 3.0763
vt -1.6694 1.0000 3.0763
vt -2.1943 0.0000 3.1236
vt -2.1976 1.0000 3.1239
vt -0.2614 0.0000 -1.0725
vt 1.4000 0.0000 -0.8850
vt 1.4000 1.0000 -0.8850
vt -0.2614 1.0000 -1.0725
vt -1.9229 0.0000 -1.2600
vt -1.9229 1.0000 -1.2600
vt -2.7767 0.0000 -1.3563
vt -2.7767 1.0000 -1.3563
vt -3.6044 1.0000 -1.4361
vt -3.6044 0.0000 -1.4361
vt -3.5839 0.0000 -1.4341
vt -7.9011 0.0000 2.9675
vt -6.4381 0.0000 2.8017
vt -6.4381 1.0000 2.8017
vt -7.9011 1.0000 2.9675
vt 1.4785 0.0000 -8.0671
vt 2.9675 0.0000 -7.9011
vt 2.9675 1.0000 -7.9011
vt 1.4785 1.0000 -8.0671
vt -0.0108 0.0000 -8.2331
vt -0.0108 1.0000 -8.2331
vt 7.3948 0.0000 -0.2183
vt 9.2331 0.0000 -0.0108
vt 9.2331 1.0000 -0.0108
vt 7.3948 1.0000 -0.2183
vt 6.2136 0.0000 -0.3517
vt 6.2136 1.0000 -0.3517
vt 5.4567 1.0000 -0.4228
vt 5.4567 0.0000 -0.4228
vt 3.0805 0.0000 -0.7096
vt 3.0805 1.0000 -0.7096
vt -4.8741 0.0000 2.6384
vt -4.8741 1.0000 2.6384
vt 1.3217 1.0000 0.5097
vt -0.3217 1.0000 0.4903
vt -0.3217 0.0000 0.4903
vt 1.3217 0.0000 0.5097
vt 0.1030 0.0000 0.5081
vt 0.8970 0.0000 0.4919
vt 0.8970 1.0000 0.4919
vt 0.1030 1.0000 0.5081
# 72 texture coords

g data30
usemtl HS2504DXY002
s off
f 1/1/1 2/2/1 3/3/1 
f 4/4/2 5/5/2 6/6/2 
f 6/6/2 7/7/2 4/4/2 
f 8/8/2 4/4/2 7/7/2 
f 7/7/2 9/9/2 8/8/2 
f 10/10/3 8/11/3 9/12/3 
f 9/12/3 11/13/3 10/10/3 
f 12/14/3 10/10/3 11/13/3 
f 11/13/3 13/15/3 12/14/3 
f 14/16/4 12/17/4 13/18/4 
f 13/18/4 15/19/4 14/16/4 
f 16/20/5 14/16/5 15/19/5 
f 15/19/5 17/21/5 16/20/5 
f 18/22/6 19/23/6 20/24/6 
f 20/24/6 21/25/6 18/22/6 
f 22/26/6 18/22/6 21/25/6 
f 21/25/6 23/27/6 22/26/6 
f 24/28/6 22/26/6 23/27/6 
f 23/27/6 25/29/6 24/28/6 
f 26/30/7 24/28/7 25/29/7 
f 25/29/7 27/31/7 26/30/7 
f 28/32/8 29/33/8 30/34/8 
f 30/34/8 31/35/8 28/32/8 
f 32/36/8 28/32/8 31/35/8 
f 31/35/8 33/37/8 32/36/8 
f 34/38/8 32/36/8 33/37/8 
f 33/37/8 35/39/8 34/38/8 
f 35/39/9 36/40/9 37/41/9 
f 35/39/10 37/41/10 37/42/10 
f 35/39/9 37/42/9 34/38/9 
f 38/43/11 39/44/11 40/45/11 
f 40/45/11 41/46/11 38/43/11 
f 42/47/12 38/48/12 41/49/12 
f 41/49/12 43/50/12 42/47/12 
f 44/51/12 42/47/12 43/50/12 
f 43/50/12 45/52/12 44/51/12 
f 46/53/13 44/54/13 45/55/13 
f 45/55/13 47/56/13 46/53/13 
f 48/57/13 46/53/13 47/56/13 
f 47/56/13 49/58/13 48/57/13 
f 48/57/14 49/58/14 50/59/14 
f 50/59/14 51/60/14 48/57/14 
f 52/61/15 53/62/15 30/34/15 
f 30/34/16 29/33/16 52/61/16 
f 54/63/17 55/64/17 40/45/17 
f 40/45/17 39/44/17 54/63/17 
f 56/65/18 20/66/18 19/67/18 
f 19/67/19 57/68/19 56/65/19 
f 5/69/20 3/70/20 1/71/20 
f 1/71/20 6/72/20 5/69/20 
# 50 faces

