# 3ds Max Wavefront OBJ Exporter v0.97b - (c)2007 guruware
# 创建的文件:30.08.2021 16:40:58

mtllib data36.mtl

#
# object data36
#

v  144.1694 150.1949 102.0000
v  139.7990 150.7043 102.0000
v  139.2896 146.3338 102.0000
v  143.6600 145.8245 102.0000
# 4 vertices

vn 0.0000 0.0000 1.0000
# 1 vertex normals

vt 1.0000 1.0000 0.5000
vt 0.0000 1.0000 0.5000
vt 0.0000 0.0000 0.5000
vt 1.0000 0.0000 0.5000
# 4 texture coords

g data36
usemtl y20
s off
f 1/1/1 2/2/1 3/3/1 
f 3/3/1 4/4/1 1/1/1 
# 2 faces

