# 3ds Max Wavefront OBJ Exporter v0.97b - (c)2007 guruware
# 创建的文件:30.08.2021 16:41:01

mtllib data37.mtl

#
# object data37
#

v  141.9306 148.3314 0.1000
v  142.0700 149.5233 0.1000
v  142.0700 149.5233 2.2000
v  141.9306 148.3314 2.2000
v  136.0612 141.6955 0.1000
v  136.0612 141.6955 2.2000
v  134.8515 141.8355 2.2000
v  134.8515 141.8355 0.1000
v  129.2953 141.4952 0.1000
v  129.2953 141.4952 2.2000
v  128.4325 141.5558 2.2000
v  128.4325 141.5558 0.1000
v  130.9574 141.5023 0.1000
v  131.0851 142.5948 0.1000
v  131.0851 142.5948 2.2000
v  130.9574 141.5023 2.2000
v  127.7959 158.5435 0.1000
v  127.7959 158.5435 2.2000
v  128.0049 160.3313 2.2000
v  128.0049 160.3313 0.1000
v  108.4151 160.5467 0.1000
v  108.6242 162.3345 0.1000
v  108.6242 162.3345 2.2000
v  108.4151 160.5467 2.2000
v  107.4393 152.1110 0.1000
v  107.5670 153.2036 0.1000
v  107.5670 153.2036 2.2000
v  107.4393 152.1110 2.2000
v  105.8621 151.9951 0.1000
v  105.8621 151.9951 2.2000
v  104.7695 152.1229 2.2000
v  104.7695 152.1229 0.1000
v  136.2651 154.9844 0.1000
v  135.0732 155.1237 0.1000
v  135.0732 155.1237 2.2000
v  136.2651 154.9844 2.2000
# 36 vertices

vn 0.9932 -0.1161 0.0000
vn -0.1149 -0.9934 0.0000
vn -0.1149 -0.9934 -0.0000
vn -0.0701 -0.9975 0.0000
vn -0.9932 0.1161 0.0000
vn -0.1161 -0.9932 0.0000
vn 0.1161 0.9932 0.0000
# 7 vertex normals

vt 0.2473 0.0000 0.5000
vt 0.7538 0.0000 0.5000
vt 0.7538 1.0000 0.5000
vt 0.2473 1.0000 0.5000
vt 1.0000 -0.0000 0.5000
vt 1.0000 1.0000 0.5000
vt 0.0000 1.0000 1.5000
vt 0.0000 -0.0000 1.5000
vt 0.7482 -0.0000 0.5000
vt 0.2378 -0.0000 1.5000
vt 0.2378 1.0000 1.5000
vt 0.7482 1.0000 0.5000
# 12 texture coords

g data37
usemtl fqlm_009
s off
f 1/1/1 2/2/1 3/3/1 
f 3/3/1 4/4/1 1/1/1 
f 5/1/2 6/4/2 7/3/2 
f 7/3/3 8/2/3 5/1/3 
f 9/1/4 10/4/4 11/3/4 
f 11/3/4 12/2/4 9/1/4 
f 13/1/1 14/2/1 15/3/1 
f 15/3/1 16/4/1 13/1/1 
f 17/5/5 18/6/5 19/7/5 
f 19/7/5 20/8/5 17/5/5 
f 21/5/1 22/8/1 23/7/1 
f 23/7/1 24/6/1 21/5/1 
f 25/9/1 26/10/1 27/11/1 
f 27/11/1 28/12/1 25/9/1 
f 29/1/6 30/4/6 31/3/6 
f 31/3/6 32/2/6 29/1/6 
f 33/1/7 34/2/7 35/3/7 
f 35/3/7 36/4/7 33/1/7 
# 18 faces

