# 3ds Max Wavefront OBJ Exporter v0.97b - (c)2007 guruware
# 创建的文件:30.08.2021 16:41:07

mtllib data01.mtl

#
# object data01
#

v  102.7288 159.8572 96.0000
v  102.7288 159.8572 6.0000
v  100.4967 160.1161 6.0000
v  100.4967 160.1161 96.0000
# 4 vertices

vn 0.1152 0.9933 0.0000
# 1 vertex normals

vt -0.0000 15.0000 -0.0000
vt -0.0000 0.0000 -0.0000
vt 1.0000 0.0000 1.0000
vt 1.0000 15.0000 1.0000
# 4 texture coords

g data01
usemtl z21
s off
f 1/1/1 2/2/1 3/3/1 
f 3/3/1 4/4/1 1/1/1 
# 2 faces

