# 3ds Max Wavefront OBJ Exporter v0.97b - (c)2007 guruware
# 创建的文件:30.08.2021 16:41:06

mtllib data06.mtl

#
# object data06
#

v  141.0592 140.8349 96.0000
v  141.0592 140.8349 6.0000
v  141.8404 147.5380 6.0000
v  141.8404 147.5380 96.0000
# 4 vertices

vn 0.9933 -0.1158 0.0000
# 1 vertex normals

vt 0.0000 15.0000 -0.0000
vt 0.0000 0.0000 -0.0000
vt 1.0000 0.0000 1.0000
vt 1.0000 15.0000 1.0000
# 4 texture coords

g data06
usemtl z24
s off
f 1/1/1 2/2/1 3/3/1 
f 3/3/1 4/4/1 1/1/1 
# 2 faces

