# 3ds Max Wavefront OBJ Exporter v0.97b - (c)2007 guruware
# 创建的文件:30.08.2021 16:41:05

mtllib data09.mtl

#
# object data09
#

v  123.3248 143.4599 96.0000
v  123.3248 143.4599 6.0000
v  128.3092 142.8974 6.0000
v  128.3092 142.8974 96.0000
# 4 vertices

vn -0.1121 -0.9937 0.0000
# 1 vertex normals

vt -0.0000 15.0000 1.0000
vt -0.0000 0.0000 1.0000
vt 1.0000 0.0000 0.0000
vt 1.0000 15.0000 0.0000
# 4 texture coords

g data09
usemtl z7
s off
f 1/1/1 2/2/1 3/3/1 
f 3/3/1 4/4/1 1/1/1 
# 2 faces

