# 3ds Max Wavefront OBJ Exporter v0.97b - (c)2007 guruware
# 创建的文件:30.08.2021 16:41:04

mtllib data39.mtl

#
# object data39
#

v  118.3404 144.0224 96.0000
v  118.3404 144.0224 6.0000
v  123.3248 143.4599 6.0000
v  123.3248 143.4599 96.0000
v  136.0279 141.3974 96.0000
v  136.0279 141.3974 6.0000
v  141.0592 140.8349 6.0000
v  141.0592 140.8349 96.0000
# 8 vertices

vn -0.1121 -0.9937 0.0000
vn -0.1111 -0.9938 0.0000
# 2 vertex normals

vt 0.0000 15.0000 1.0000
vt 0.0000 0.0000 1.0000
vt 1.0000 0.0000 0.0000
vt 1.0000 15.0000 0.0000
# 4 texture coords

g data39
usemtl z6
s off
f 1/1/1 2/2/1 3/3/1 
f 3/3/1 4/4/1 1/1/1 
f 5/1/2 6/2/2 7/3/2 
f 7/3/2 8/4/2 5/1/2 
# 4 faces

