# 3ds Max Wavefront OBJ Exporter v0.97b - (c)2007 guruware
# 创建的文件:30.08.2021 16:41:00

mtllib data21.mtl

#
# object data21
#

v  108.9086 150.2932 96.5000
v  108.3990 145.4091 96.5001
v  113.3897 144.8830 96.5000
v  128.3414 143.2356 96.5000
v  128.9102 149.2081 96.5000
v  126.6707 149.4458 96.5000
v  125.9200 143.4689 96.5000
v  123.3584 143.7580 96.5000
v  118.3741 144.3205 96.5000
v  127.3396 154.7974 96.5000
v  122.5098 155.3024 96.5000
v  117.6816 155.8493 96.5000
v  112.8535 156.3961 96.5000
v  109.5815 156.7668 96.5000
v  108.0168 156.9079 96.5000
v  107.2013 150.4852 96.5000
v  95.2754 155.9430 96.5000
v  90.8865 156.4404 96.5000
v  90.3886 151.9735 96.5000
v  89.8905 147.5056 96.5000
v  95.4053 146.8830 96.5000
v  98.9490 146.4829 96.5000
v  101.2197 146.2697 96.5000
v  101.7239 151.1011 96.5000
v  99.5018 151.3510 96.5000
v  99.9675 155.4530 96.5000
v  141.5424 147.5727 96.5000
v  142.2890 153.9780 96.5000
v  134.8322 154.8024 96.5000
v  134.1296 148.6540 96.5000
v  131.6592 148.9163 96.5000
v  131.0217 142.2228 96.5000
v  133.3680 141.9966 96.5000
v  136.0612 141.6955 96.5000
v  140.7957 141.1662 96.5000
# 35 vertices

vn 0.0000 0.0000 1.0000
# 1 vertex normals

vt -0.2058 0.3966 0.0000
vt -0.1999 -0.0944 1.0000
vt 0.3019 -0.0889 0.0000
vt 1.8061 -0.0795 0.0000
vt 1.7934 0.5204 0.0000
vt 1.5682 0.5181 0.0000
vt 1.5629 -0.0843 0.0000
vt 1.3051 -0.0853 0.0000
vt 0.8035 -0.0871 0.0000
vt 1.5727 1.0574 0.0000
vt 1.0871 1.0516 0.0000
vt 0.6012 1.0500 0.0000
vt 0.1153 1.0485 0.0000
vt -0.2139 1.0474 0.0000
vt -0.3710 1.0433 0.0000
vt -0.3776 0.3959 0.0000
vt -1.6254 0.8000 0.0000
vt -2.0671 0.7985 0.0000
vt -2.0648 0.3491 0.0000
vt -2.0626 -0.1005 0.0000
vt -1.5076 -0.0985 0.0000
vt -1.1510 -0.0972 0.0000
vt -0.9230 -0.0921 0.0000
vt -0.9288 0.3937 0.0000
vt -1.1524 0.3928 0.0000
vt -1.1537 0.8056 0.0000
vt 3.0671 0.5042 0.0000
vt 3.0671 1.1490 0.0000
vt 2.3169 1.1446 0.0000
vt 2.3183 0.5258 0.0000
vt 2.0699 0.5232 0.0000
vt 2.0840 -0.1490 0.0000
vt 2.3197 -0.1443 0.0000
vt 2.5907 -0.1431 0.0000
vt 3.0671 -0.1408 0.0000
# 35 texture coords

g data21
usemtl TWD20026
s off
f 1/1/1 2/2/1 3/3/1 
f 4/4/1 5/5/1 6/6/1 
f 7/7/1 4/4/1 6/6/1 
f 8/8/1 7/7/1 6/6/1 
f 9/9/1 8/8/1 6/6/1 
f 6/6/1 10/10/1 11/11/1 
f 6/6/1 11/11/1 12/12/1 
f 13/13/1 14/14/1 15/15/1 
f 12/12/1 13/13/1 15/15/1 
f 6/6/1 12/12/1 15/15/1 
f 9/9/1 6/6/1 15/15/1 
f 3/3/1 9/9/1 15/15/1 
f 1/1/1 3/3/1 15/15/1 
f 1/1/1 15/15/1 16/16/1 
f 17/17/1 18/18/1 19/19/1 
f 19/19/1 20/20/1 21/21/1 
f 21/21/1 22/22/1 23/23/1 
f 19/19/1 21/21/1 23/23/1 
f 23/23/1 24/24/1 25/25/1 
f 19/19/1 23/23/1 25/25/1 
f 17/17/1 19/19/1 25/25/1 
f 17/17/1 25/25/1 26/26/1 
f 27/27/1 28/28/1 29/29/1 
f 27/27/1 29/29/1 30/30/1 
f 30/30/1 31/31/1 32/32/1 
f 30/30/1 32/32/1 33/33/1 
f 27/27/1 30/30/1 33/33/1 
f 27/27/1 33/33/1 34/34/1 
f 27/27/1 34/34/1 35/35/1 
# 29 faces

