# 3ds Max Wavefront OBJ Exporter v0.97b - (c)2007 guruware
# 创建的文件:30.08.2021 16:41:00

mtllib data23.mtl

#
# object data23
#

v  144.1694 150.1949 6.0000
v  143.6600 145.8245 6.0000
v  139.2896 146.3338 6.0000
v  139.7990 150.7043 6.0000
v  101.7239 151.1011 103.0000
v  101.1842 145.9286 103.0000
v  100.8092 142.3349 103.0000
v  107.9967 141.5536 103.0000
v  108.3717 145.1474 103.0000
v  108.9086 150.2932 103.0000
v  131.6592 148.9163 103.0000
v  134.1296 148.6540 103.0000
v  134.8717 155.1474 103.0000
v  134.9967 156.2411 103.0000
v  127.6217 157.0536 103.0000
v  127.3717 155.0536 103.0000
v  126.6707 149.4458 103.0000
v  128.9102 149.2081 103.0000
v  129.7288 156.8215 103.0000
v  102.7288 159.8572 103.0000
v  100.4967 160.1161 103.0000
v  99.9967 155.7099 103.0000
v  99.5018 151.3510 103.0000
v  107.2013 150.4852 103.0000
v  108.0592 157.2411 103.0000
v  108.3092 159.2099 103.0000
v  128.1842 141.5849 103.0000
v  130.9342 141.3036 103.0000
v  130.9967 141.9599 103.0000
v  128.3092 142.8974 103.0000
# 30 vertices

vn 0.0000 0.0000 -1.0000
vn 0.0000 0.0000 1.0000
# 2 vertex normals

vt -0.2331 1.2336 0.5000
vt -0.2336 -0.2331 0.5000
vt 1.2331 -0.2336 0.5000
vt 1.2336 1.2331 0.5000
vt -1.0104 0.4928 0.5000
vt -1.0042 -0.0272 0.5000
vt -0.9998 -0.3885 0.5000
vt -0.2768 -0.3829 0.5000
vt -0.2812 -0.0216 0.5000
vt -0.2874 0.4957 0.5000
vt 1.9883 0.6223 0.5000
vt 2.2367 0.6249 0.5000
vt 2.2352 1.2784 0.5000
vt 2.2350 1.3885 0.5000
vt 1.4930 1.3839 0.5000
vt 1.4914 1.1823 0.5000
vt 1.4866 0.6172 0.5000
vt 1.7118 0.6195 0.5000
vt 1.7050 1.3852 0.5000
vt -1.0120 1.3741 0.5000
vt -1.2367 1.3740 0.5000
vt -1.2353 0.9306 0.5000
vt -1.2340 0.4919 0.5000
vt -0.4592 0.4950 0.5000
vt -0.4522 1.1760 0.5000
vt -0.4502 1.3745 0.5000
vt 1.7280 -0.1461 0.5000
vt 2.0044 -0.1422 0.5000
vt 2.0030 -0.0763 0.5000
vt 1.7252 -0.0143 0.5000
# 30 texture coords

g data23
usemtl sn2
s off
f 1/1/1 2/2/1 3/3/1 
f 3/3/1 4/4/1 1/1/1 
f 5/5/2 6/6/2 7/7/2 
f 5/5/2 7/7/2 8/8/2 
f 5/5/2 8/8/2 9/9/2 
f 5/5/2 9/9/2 10/10/2 
f 11/11/2 12/12/2 13/13/2 
f 11/11/2 13/13/2 14/14/2 
f 15/15/2 16/16/2 17/17/2 
f 15/15/2 17/17/2 18/18/2 
f 19/19/2 15/15/2 18/18/2 
f 14/14/2 19/19/2 18/18/2 
f 11/11/2 14/14/2 18/18/2 
f 20/20/2 21/21/2 22/22/2 
f 20/20/2 22/22/2 23/23/2 
f 20/20/2 23/23/2 5/5/2 
f 24/24/2 25/25/2 26/26/2 
f 5/5/2 24/24/2 26/26/2 
f 20/20/2 5/5/2 26/26/2 
f 27/27/2 28/28/2 29/29/2 
f 27/27/2 29/29/2 11/11/2 
f 27/27/2 11/11/2 18/18/2 
f 27/27/1 18/18/1 30/30/1 
# 23 faces

