# 3ds Max Wavefront OBJ Exporter v0.97b - (c)2007 guruware
# 创建的文件:30.08.2021 16:40:59

mtllib data18.mtl

#
# object data18
#

v  108.3092 159.2099 96.0000
v  108.0592 157.2411 96.0000
v  108.0592 157.2411 6.0000
v  108.3092 159.2099 6.0000
v  99.9967 155.7099 96.0000
v  100.4967 160.1161 96.0000
v  100.4967 160.1161 6.0000
v  99.9967 155.7099 6.0000
v  100.8092 142.3349 96.0000
v  101.1842 145.9286 96.0000
v  101.1842 145.9286 6.0000
v  100.8092 142.3349 6.0000
v  108.3717 145.1474 96.0000
v  107.9967 141.5536 96.0000
v  107.9967 141.5536 6.0000
v  108.3717 145.1474 6.0000
v  128.1842 141.5849 96.0000
v  128.3092 142.8974 96.0000
v  128.3092 142.8974 6.0000
v  128.1842 141.5849 6.0000
v  130.9967 141.9599 96.0000
v  130.9342 141.3036 96.0000
v  130.9342 141.3036 6.0000
v  130.9967 141.9599 6.0000
v  127.3717 155.0536 96.0000
v  127.6217 157.0536 96.0000
v  127.6217 157.0536 6.0000
v  127.3717 155.0536 6.0000
v  100.8092 142.3349 102.0000
v  101.1842 145.9286 102.0000
v  101.1842 145.9286 98.5000
v  108.3717 145.1474 96.5630
v  108.3717 145.1474 98.5000
v  108.3717 145.1474 102.0000
v  107.9967 141.5536 102.0000
v  128.1842 141.5849 102.0000
v  128.3092 142.8974 102.0000
v  130.9967 141.9599 102.0000
v  130.9342 141.3036 102.0000
v  131.6592 148.9163 102.0000
v  131.6592 148.9163 96.0000
v  128.9102 149.2081 102.0000
v  128.9102 149.2081 96.0000
v  108.3092 159.2099 102.0000
v  108.0592 157.2411 102.0000
v  108.0592 157.2411 98.5000
v  108.0592 157.2411 96.5000
v  100.4967 160.1161 102.0000
v  102.7288 159.8572 102.0000
v  102.7288 159.8572 96.0000
v  99.9967 155.7099 96.5000
v  99.9967 155.7099 98.5000
v  99.9967 155.7099 102.0000
v  134.9967 156.2411 102.0000
v  134.8717 155.1474 102.0000
v  134.8717 155.1474 96.0000
v  134.9967 156.2411 96.0000
v  127.3717 155.0536 102.0000
v  127.6217 157.0536 102.0000
v  126.6707 149.4458 96.0000
v  126.6707 149.4458 96.5000
v  126.6707 149.4458 102.0000
v  134.1296 148.6540 102.0000
v  134.1296 148.6540 96.0000
v  100.8092 142.3349 103.0000
v  101.1842 145.9286 103.0000
v  107.9967 141.5536 103.0000
v  108.3717 145.1474 103.0000
v  108.9086 150.2932 103.0000
v  108.9086 150.2932 102.0000
v  101.7239 151.1011 103.0000
v  101.7239 151.1011 102.0000
v  134.9967 156.2411 103.0000
v  134.8717 155.1474 103.0000
v  129.7288 156.8215 103.0000
v  129.7288 156.8215 102.0000
v  127.6217 157.0536 103.0000
v  127.3717 155.0536 103.0000
v  126.6707 149.4458 103.0000
v  128.9102 149.2081 103.0000
v  134.1296 148.6540 103.0000
v  131.6592 148.9163 103.0000
v  108.3092 159.2099 103.0000
v  108.0592 157.2411 103.0000
v  102.7288 159.8572 103.0000
v  100.4967 160.1161 103.0000
v  99.9967 155.7099 103.0000
v  99.5018 151.3510 103.0000
v  99.9675 155.4530 102.0000
v  99.5018 151.3510 102.0000
v  107.2013 150.4852 103.0000
v  107.2013 150.4852 102.0000
v  128.1842 141.5849 103.0000
v  128.3092 142.8974 103.0000
v  130.9342 141.3036 103.0000
v  130.9967 141.9599 103.0000
v  134.8717 155.1474 6.0000
v  134.9967 156.2411 6.0000
v  108.9086 150.2932 96.5000
v  108.3990 145.4092 98.5001
v  108.3990 145.4091 96.5001
v  101.7239 151.1011 96.5000
v  99.5018 151.3510 96.5000
v  99.9675 155.4530 98.5000
v  99.9675 155.4530 96.5000
v  101.2197 146.2697 96.5000
v  101.2197 146.2697 98.5000
v  107.2013 150.4852 96.5000
v  108.0168 156.9079 96.5000
v  128.9102 149.2081 96.5000
# 110 vertices

vn 0.9920 -0.1260 0.0000
vn -0.9936 0.1128 0.0000
vn -0.9946 0.1038 0.0000
vn 0.9946 -0.1038 0.0000
vn -0.9955 0.0948 0.0000
vn 0.9955 -0.0948 0.0000
vn -0.9923 0.1240 0.0000
vn 0.1152 0.9933 0.0000
vn -0.9936 0.1127 0.0000
vn -0.9936 0.1127 -0.0000
vn 0.9935 -0.1135 0.0000
vn -0.9923 0.1240 -0.0000
vn -0.1056 -0.9944 0.0000
vn -0.1081 -0.9941 0.0000
vn 0.1117 0.9937 0.0000
vn 0.1095 0.9940 0.0000
vn -0.9936 0.1128 -0.0000
vn -0.1117 -0.9937 0.0000
vn -0.1017 -0.9948 0.0000
vn 0.9946 -0.1038 -0.0000
vn 0.9920 -0.1260 -0.0000
vn -0.1056 -0.9944 -0.0000
# 22 vertex normals

vt 0.3000 15.0000 1.0000
vt 0.0000 15.0000 0.0000
vt 0.0000 0.0000 0.0000
vt 0.3000 0.0000 1.0000
vt 0.6000 15.0000 0.0000
vt 0.0000 15.0000 1.0000
vt 0.0000 0.0000 1.0000
vt 0.6000 0.0000 0.0000
vt 0.6000 15.0000 1.0000
vt 0.6000 0.0000 1.0000
vt 0.3000 15.0000 0.0000
vt 0.3000 0.0000 0.0000
vt 0.1000 15.0000 1.0000
vt 0.1000 0.0000 1.0000
vt 0.6000 1.0000 0.0000
vt 0.0000 1.0000 1.0000
vt 0.0000 0.4167 1.0000
vt 0.6000 0.0938 1.0000
vt 0.6000 0.4167 1.0000
vt 0.6000 1.0000 1.0000
vt 0.0000 1.0000 0.0000
vt 0.3000 1.0000 0.0000
vt 0.1000 1.0000 1.0000
vt 1.0000 1.0000 1.0000
vt 1.0000 0.0000 1.0000
vt 1.0000 1.0000 0.0000
vt -0.0000 1.0000 1.0000
vt -0.0000 0.0000 1.0000
vt 1.0000 0.0000 0.0000
vt 0.3000 1.0000 1.0000
vt 0.0000 0.4167 0.0000
vt 0.0000 0.0833 0.0000
vt 0.5000 1.0000 1.0000
vt -0.0000 1.0000 -0.0000
vt -0.0000 0.0000 -0.0000
vt 0.5000 0.0000 1.0000
vt 0.6000 0.0833 0.0000
vt 0.6000 0.4167 0.0000
vt 0.1500 1.0000 1.0000
vt 0.1500 0.0000 1.0000
vt 1.0000 0.0833 0.0000
vt 0.3000 1.0000 -0.0000
vt 0.3000 0.0000 -0.0000
vt 0.6000 0.1600 0.0000
vt 0.0000 0.1600 1.0000
vt 1.0000 0.1600 0.0000
vt 0.6000 0.1600 1.0000
vt 0.0000 0.1600 0.0000
vt 1.0000 0.1600 1.0000
vt 0.0000 0.1600 -0.0000
vt 0.0000 0.0000 -0.0000
vt 0.1500 0.1600 1.0000
vt 0.5000 0.1600 1.0000
vt 0.1500 0.1600 0.0000
vt 0.1500 0.0000 0.0000
vt 0.3000 0.1600 -0.0000
vt 0.3000 0.1600 0.0000
vt 0.3000 0.1600 1.0000
vt -0.0000 0.1600 0.0000
vt -0.0000 0.0000 0.0000
vt -0.0000 0.1600 -0.0000
vt 0.0589 0.0000 0.9411
vt 0.5000 0.1600 0.0000
vt 0.5000 0.0000 0.0000
vt 0.1500 15.0000 -0.0002
vt 0.0000 15.0000 0.9998
vt 0.0000 0.0000 0.9998
vt 0.1500 0.0000 -0.0002
vt 1.0000 0.0833 1.0000
vt 0.0000 1.0000 -0.0000
vt 0.0000 0.4167 -0.0000
vt 0.0509 0.4167 0.0509
vt 0.0508 0.0833 0.0508
vt 1.5000 0.0833 1.0000
vt 1.5000 1.0000 1.0000
vt 0.0000 0.0833 1.0000
vt 0.5000 0.0833 0.0000
vt 0.5000 1.0000 0.0000
vt 0.6600 1.0000 0.0000
vt 0.0389 1.0000 0.9411
vt 0.0389 0.4167 0.9411
vt 0.0389 0.0833 0.9411
vt 0.6600 0.0833 0.0000
vt 0.9340 0.0833 0.0660
vt 0.9715 0.2728 0.0285
vt 1.0000 0.4167 0.0000
vt -0.0000 0.4167 1.0000
vt 1.0000 0.4167 1.0000
vt 0.9507 0.0833 0.9507
vt 0.3000 0.0833 -0.0000
# 90 texture coords

g data18
usemtl y5
s off
f 1/1/1 2/2/1 3/3/1 
f 3/3/1 4/4/1 1/1/1 
f 5/5/2 6/6/2 7/7/2 
f 7/7/2 8/8/2 5/5/2 
f 9/5/3 10/6/3 11/7/3 
f 11/7/3 12/8/3 9/5/3 
f 13/9/4 14/2/4 15/3/4 
f 15/3/4 16/10/4 13/9/4 
f 17/11/5 18/6/5 19/7/5 
f 19/7/5 20/12/5 17/11/5 
f 21/13/6 22/2/6 23/3/6 
f 23/3/6 24/14/6 21/13/6 
f 25/11/7 26/6/7 27/7/7 
f 27/7/7 28/12/7 25/11/7 
f 29/15/3 30/16/3 31/17/3 
f 29/15/3 31/17/3 10/7/3 
f 29/15/3 10/7/3 9/8/3 
f 14/3/4 13/10/4 32/18/4 
f 14/3/4 32/18/4 33/19/4 
f 14/3/4 33/19/4 34/20/4 
f 14/3/4 34/20/4 35/21/4 
f 36/22/5 37/16/5 18/7/5 
f 18/7/5 17/12/5 36/22/5 
f 38/23/6 39/21/6 22/3/6 
f 22/3/6 21/14/6 38/23/6 
f 40/24/6 38/21/6 21/3/6 
f 21/3/6 41/25/6 40/24/6 
f 37/26/5 42/27/5 43/28/5 
f 43/28/5 18/29/5 37/26/5 
f 44/30/1 45/21/1 46/31/1 
f 44/30/1 46/31/1 47/32/1 
f 44/30/1 47/32/1 2/3/1 
f 44/30/1 2/3/1 1/4/1 
f 48/33/8 49/34/8 50/35/8 
f 50/35/8 6/36/8 48/33/8 
f 6/7/2 5/8/2 51/37/2 
f 6/7/9 51/37/9 52/38/9 
f 6/7/10 52/38/10 53/15/10 
f 6/7/2 53/15/2 48/16/2 
f 54/39/11 55/21/11 56/3/11 
f 56/3/11 57/40/11 54/39/11 
f 58/22/7 59/16/7 26/7/7 
f 26/7/7 25/12/7 58/22/7 
f 25/7/7 60/29/7 61/41/7 
f 25/7/12 61/41/12 62/26/12 
f 25/7/7 62/26/7 58/16/7 
f 63/42/13 40/27/13 41/28/13 
f 41/28/13 64/43/13 63/42/13 
f 55/24/11 63/21/11 64/3/11 
f 64/3/11 56/25/11 55/24/11 
f 65/44/3 66/45/3 30/7/3 
f 30/7/3 29/8/3 65/44/3 
f 67/46/14 65/45/14 29/7/14 
f 29/7/14 35/29/14 67/46/14 
f 68/47/4 67/48/4 35/3/4 
f 35/3/4 34/10/4 68/47/4 
f 69/49/4 68/50/4 34/51/4 
f 34/51/4 70/25/4 69/49/4 
f 71/49/15 69/48/15 70/3/15 
f 70/3/15 72/25/15 71/49/15 
f 66/46/3 71/45/3 72/7/3 
f 72/7/3 30/29/3 66/46/3 
f 73/52/11 74/48/11 55/3/11 
f 55/3/11 54/40/11 73/52/11 
f 75/49/16 73/48/16 54/3/16 
f 54/3/16 76/25/16 75/49/16 
f 77/53/16 75/50/16 76/51/16 
f 76/51/16 59/36/16 77/53/16 
f 78/54/7 77/45/7 59/7/7 
f 59/7/7 58/55/7 78/54/7 
f 79/46/7 78/45/7 58/7/7 
f 58/7/7 62/29/7 79/46/7 
f 80/56/13 79/45/13 62/7/13 
f 62/7/13 42/43/13 80/56/13 
f 81/57/13 82/45/13 40/7/13 
f 40/7/13 63/12/13 81/57/13 
f 74/49/11 81/48/11 63/3/11 
f 63/3/11 55/25/11 74/49/11 
f 83/58/1 84/59/1 45/60/1 
f 45/60/1 44/4/1 83/58/1 
f 85/49/8 83/48/8 44/3/8 
f 44/3/8 49/25/8 85/49/8 
f 86/53/8 85/61/8 49/35/8 
f 49/35/8 48/36/8 86/53/8 
f 87/44/2 86/45/2 48/7/2 
f 48/7/2 53/8/2 87/44/2 
f 88/46/2 87/45/2 53/7/2 
f 88/46/17 53/7/17 89/62/17 
f 88/46/2 89/62/2 90/29/2 
f 71/63/18 88/45/18 90/7/18 
f 90/7/18 72/64/18 71/63/18 
f 84/49/1 91/48/1 92/3/1 
f 92/3/1 45/25/1 84/49/1 
f 93/54/5 94/45/5 37/7/5 
f 37/7/5 36/55/5 93/54/5 
f 95/63/19 93/45/19 36/7/19 
f 36/7/19 39/64/19 95/63/19 
f 96/52/6 95/48/6 39/3/6 
f 39/3/6 38/40/6 96/52/6 
f 82/49/6 96/48/6 38/3/6 
f 38/3/6 40/25/6 82/49/6 
f 94/46/5 80/45/5 42/7/5 
f 42/7/5 37/29/5 94/46/5 
f 57/65/11 56/66/11 97/67/11 
f 97/67/11 98/68/11 57/65/11 
f 99/69/4 70/24/4 34/70/4 
f 34/70/4 33/71/4 100/72/4 
f 99/69/4 34/70/4 100/72/4 
f 99/69/20 100/72/20 101/73/20 
f 99/32/15 102/74/15 72/75/15 
f 72/75/15 70/21/15 99/32/15 
f 103/76/18 102/77/18 72/78/18 
f 72/78/18 90/16/18 103/76/18 
f 90/79/17 89/80/17 104/81/17 
f 90/79/2 104/81/2 105/82/2 
f 90/79/2 105/82/2 103/83/2 
f 102/76/3 106/84/3 107/85/3 
f 107/85/3 31/86/3 30/26/3 
f 102/76/3 107/85/3 30/26/3 
f 102/76/3 30/26/3 72/16/3 
f 104/81/17 89/80/17 53/27/17 
f 53/27/17 52/87/17 104/81/17 
f 46/88/1 45/24/1 92/21/1 
f 46/88/1 92/21/1 108/32/1 
f 46/88/21 108/32/21 109/89/21 
f 42/42/22 62/16/22 61/76/22 
f 61/76/13 110/90/13 42/42/13 
# 127 faces

